{
	"asset":{
		"generator":"Khronos glTF Blender I/O v4.0.44",
		"version":"2.0"
	},
	"scene":0,
	"scenes":[
		{
			"name":"Scene",
			"nodes":[
				0,
				1,
				2,
				3,
				4,
				5,
				6,
				7,
				8
			]
		}
	],
	"nodes":[
		{
			"mesh":0,
			"name":"Cube"
		},
		{
			"mesh":1,
			"name":"Cube.001",
			"scale":[
				0.34289777278900146,
				0.2885383069515228,
				0.34289777278900146
			],
			"translation":[
				-0.27897632122039795,
				2.8552439212799072,
				0
			]
		},
		{
			"mesh":2,
			"name":"Cube.002",
			"scale":[
				0.34289777278900146,
				0.2885383069515228,
				0.34289777278900146
			],
			"translation":[
				-0.27897632122039795,
				1.6476624011993408,
				0
			]
		},
		{
			"mesh":3,
			"name":"Cube.003",
			"scale":[
				0.23278720676898956,
				0.23278720676898956,
				0.23278720676898956
			],
			"translation":[
				-0.5322235822677612,
				4.211084842681885,
				-0.04224609583616257
			]
		},
		{
			"mesh":4,
			"name":"Cube.004",
			"scale":[
				0.23278720676898956,
				0.23278720676898956,
				0.23278720676898956
			],
			"translation":[
				-1.5041643381118774,
				4.0391411781311035,
				-0.021880079060792923
			]
		},
		{
			"mesh":5,
			"name":"Cube.005",
			"scale":[
				0.2812544107437134,
				0.2812544107437134,
				0.2812544107437134
			],
			"translation":[
				0,
				4.522854804992676,
				0
			]
		},
		{
			"mesh":6,
			"name":"Cube.006",
			"scale":[
				0.6030664443969727,
				0.6030664443969727,
				0.6030664443969727
			],
			"translation":[
				0,
				5.13651704788208,
				-0.05040327087044716
			]
		},
		{
			"mesh":7,
			"name":"Cube.007",
			"scale":[
				0.2586078643798828,
				0.2586078643798828,
				0.2586078643798828
			],
			"translation":[
				-0.39122968912124634,
				0,
				0
			]
		},
		{
			"mesh":8,
			"name":"Cube.008",
			"scale":[
				0.22502094507217407,
				0.22502094507217407,
				0.22502094507217407
			],
			"translation":[
				-2.6139376163482666,
				4.0205769538879395,
				-0.09009241312742233
			]
		}
	],
	"materials":[
		{
			"doubleSided":true,
			"name":"Material",
			"pbrMetallicRoughness":{
				"baseColorFactor":[
					0.800000011920929,
					0.800000011920929,
					0.800000011920929,
					1
				],
				"metallicFactor":0,
				"roughnessFactor":0.5
			}
		}
	],
	"meshes":[
		{
			"name":"Cube",
			"primitives":[
				{
					"attributes":{
						"POSITION":0,
						"NORMAL":1,
						"TEXCOORD_0":2,
						"TANGENT":3
					},
					"indices":4,
					"material":0
				}
			]
		},
		{
			"name":"Cube.001",
			"primitives":[
				{
					"attributes":{
						"POSITION":5,
						"NORMAL":6,
						"TEXCOORD_0":7,
						"TANGENT":8
					},
					"indices":9
				}
			]
		},
		{
			"name":"Cube.002",
			"primitives":[
				{
					"attributes":{
						"POSITION":10,
						"NORMAL":11,
						"TEXCOORD_0":12,
						"TANGENT":13
					},
					"indices":14
				}
			]
		},
		{
			"name":"Cube.004",
			"primitives":[
				{
					"attributes":{
						"POSITION":15,
						"NORMAL":16,
						"TEXCOORD_0":17,
						"TANGENT":18
					},
					"indices":19
				}
			]
		},
		{
			"name":"Cube.005",
			"primitives":[
				{
					"attributes":{
						"POSITION":20,
						"NORMAL":21,
						"TEXCOORD_0":22,
						"TANGENT":23
					},
					"indices":24
				}
			]
		},
		{
			"name":"Cube.007",
			"primitives":[
				{
					"attributes":{
						"POSITION":25,
						"NORMAL":26,
						"TEXCOORD_0":27,
						"TANGENT":28
					},
					"indices":29
				}
			]
		},
		{
			"name":"Cube.008",
			"primitives":[
				{
					"attributes":{
						"POSITION":30,
						"NORMAL":31,
						"TEXCOORD_0":32,
						"TANGENT":33
					},
					"indices":34
				}
			]
		},
		{
			"name":"Cube.009",
			"primitives":[
				{
					"attributes":{
						"POSITION":35,
						"NORMAL":36,
						"TEXCOORD_0":37,
						"TANGENT":38
					},
					"indices":39
				}
			]
		},
		{
			"name":"Cube.010",
			"primitives":[
				{
					"attributes":{
						"POSITION":40,
						"NORMAL":41,
						"TEXCOORD_0":42,
						"TANGENT":43
					},
					"indices":44
				}
			]
		}
	],
	"accessors":[
		{
			"bufferView":0,
			"componentType":5126,
			"count":384,
			"max":[
				0.5828503966331482,
				4.5545268058776855,
				0.47905007004737854
			],
			"min":[
				-0.5828503966331482,
				2.5888941287994385,
				-0.4835033714771271
			],
			"type":"VEC3"
		},
		{
			"bufferView":1,
			"componentType":5126,
			"count":384,
			"type":"VEC3"
		},
		{
			"bufferView":2,
			"componentType":5126,
			"count":384,
			"type":"VEC2"
		},
		{
			"bufferView":3,
			"componentType":5126,
			"count":384,
			"type":"VEC4"
		},
		{
			"bufferView":4,
			"componentType":5123,
			"count":576,
			"type":"SCALAR"
		},
		{
			"bufferView":5,
			"componentType":5126,
			"count":320,
			"max":[
				2.6916348934173584,
				0.7582553625106812,
				1.0938096046447754
			],
			"min":[
				-1.0644656419754028,
				-4.951979160308838,
				-0.8701625466346741
			],
			"type":"VEC3"
		},
		{
			"bufferView":6,
			"componentType":5126,
			"count":320,
			"type":"VEC3"
		},
		{
			"bufferView":7,
			"componentType":5126,
			"count":320,
			"type":"VEC2"
		},
		{
			"bufferView":8,
			"componentType":5126,
			"count":320,
			"type":"VEC4"
		},
		{
			"bufferView":9,
			"componentType":5123,
			"count":480,
			"type":"SCALAR"
		},
		{
			"bufferView":10,
			"componentType":5126,
			"count":320,
			"max":[
				2.721264123916626,
				-0.08804836124181747,
				0.9852014780044556
			],
			"min":[
				-1.0940948724746704,
				-5.898392200469971,
				-0.6552726626396179
			],
			"type":"VEC3"
		},
		{
			"bufferView":11,
			"componentType":5126,
			"count":320,
			"type":"VEC3"
		},
		{
			"bufferView":12,
			"componentType":5126,
			"count":320,
			"type":"VEC2"
		},
		{
			"bufferView":13,
			"componentType":5126,
			"count":320,
			"type":"VEC4"
		},
		{
			"bufferView":14,
			"componentType":5123,
			"count":480,
			"type":"SCALAR"
		},
		{
			"bufferView":15,
			"componentType":5126,
			"count":320,
			"max":[
				8.933950424194336,
				1.2865118980407715,
				0.9517403244972229
			],
			"min":[
				-4.361329078674316,
				-0.7388690114021301,
				-1.1121695041656494
			],
			"type":"VEC3"
		},
		{
			"bufferView":16,
			"componentType":5126,
			"count":320,
			"type":"VEC3"
		},
		{
			"bufferView":17,
			"componentType":5126,
			"count":320,
			"type":"VEC2"
		},
		{
			"bufferView":18,
			"componentType":5126,
			"count":320,
			"type":"VEC4"
		},
		{
			"bufferView":19,
			"componentType":5123,
			"count":480,
			"type":"SCALAR"
		},
		{
			"bufferView":20,
			"componentType":5126,
			"count":320,
			"max":[
				17.296977996826172,
				1.22548246383667,
				0.5930127501487732
			],
			"min":[
				-4.373891353607178,
				-0.43502143025398254,
				-0.7570071816444397
			],
			"type":"VEC3"
		},
		{
			"bufferView":21,
			"componentType":5126,
			"count":320,
			"type":"VEC3"
		},
		{
			"bufferView":22,
			"componentType":5126,
			"count":320,
			"type":"VEC2"
		},
		{
			"bufferView":23,
			"componentType":5126,
			"count":320,
			"type":"VEC4"
		},
		{
			"bufferView":24,
			"componentType":5123,
			"count":480,
			"type":"SCALAR"
		},
		{
			"bufferView":25,
			"componentType":5126,
			"count":160,
			"max":[
				0.8346760869026184,
				2.161986827850342,
				0.8346760869026184
			],
			"min":[
				-0.8346760869026184,
				-0.8707983493804932,
				-0.8346760869026184
			],
			"type":"VEC3"
		},
		{
			"bufferView":26,
			"componentType":5126,
			"count":160,
			"type":"VEC3"
		},
		{
			"bufferView":27,
			"componentType":5126,
			"count":160,
			"type":"VEC2"
		},
		{
			"bufferView":28,
			"componentType":5126,
			"count":160,
			"type":"VEC4"
		},
		{
			"bufferView":29,
			"componentType":5123,
			"count":240,
			"type":"SCALAR"
		},
		{
			"bufferView":30,
			"componentType":5126,
			"count":384,
			"max":[
				0.7247058749198914,
				1.2570611238479614,
				0.7681163549423218
			],
			"min":[
				-0.7247058749198914,
				-0.6680938601493835,
				-0.7623839378356934
			],
			"type":"VEC3"
		},
		{
			"bufferView":31,
			"componentType":5126,
			"count":384,
			"type":"VEC3"
		},
		{
			"bufferView":32,
			"componentType":5126,
			"count":384,
			"type":"VEC2"
		},
		{
			"bufferView":33,
			"componentType":5126,
			"count":384,
			"type":"VEC4"
		},
		{
			"bufferView":34,
			"componentType":5123,
			"count":576,
			"type":"SCALAR"
		},
		{
			"bufferView":35,
			"componentType":5126,
			"count":320,
			"max":[
				4.180286407470703,
				0.8298913240432739,
				0.9302986264228821
			],
			"min":[
				-1.154626488685608,
				-0.7826056480407715,
				-3.091188430786133
			],
			"type":"VEC3"
		},
		{
			"bufferView":36,
			"componentType":5126,
			"count":320,
			"type":"VEC3"
		},
		{
			"bufferView":37,
			"componentType":5126,
			"count":320,
			"type":"VEC2"
		},
		{
			"bufferView":38,
			"componentType":5126,
			"count":320,
			"type":"VEC4"
		},
		{
			"bufferView":39,
			"componentType":5123,
			"count":480,
			"type":"SCALAR"
		},
		{
			"bufferView":40,
			"componentType":5126,
			"count":192,
			"max":[
				24.072343826293945,
				0.8395062685012817,
				0.8395062685012817
			],
			"min":[
				-0.8395062685012817,
				-0.8395062685012817,
				-0.8395062685012817
			],
			"type":"VEC3"
		},
		{
			"bufferView":41,
			"componentType":5126,
			"count":192,
			"type":"VEC3"
		},
		{
			"bufferView":42,
			"componentType":5126,
			"count":192,
			"type":"VEC2"
		},
		{
			"bufferView":43,
			"componentType":5126,
			"count":192,
			"type":"VEC4"
		},
		{
			"bufferView":44,
			"componentType":5123,
			"count":288,
			"type":"SCALAR"
		}
	],
	"bufferViews":[
		{
			"buffer":0,
			"byteLength":4608,
			"byteOffset":0,
			"target":34962
		},
		{
			"buffer":0,
			"byteLength":4608,
			"byteOffset":4608,
			"target":34962
		},
		{
			"buffer":0,
			"byteLength":3072,
			"byteOffset":9216,
			"target":34962
		},
		{
			"buffer":0,
			"byteLength":6144,
			"byteOffset":12288,
			"target":34962
		},
		{
			"buffer":0,
			"byteLength":1152,
			"byteOffset":18432,
			"target":34963
		},
		{
			"buffer":0,
			"byteLength":3840,
			"byteOffset":19584,
			"target":34962
		},
		{
			"buffer":0,
			"byteLength":3840,
			"byteOffset":23424,
			"target":34962
		},
		{
			"buffer":0,
			"byteLength":2560,
			"byteOffset":27264,
			"target":34962
		},
		{
			"buffer":0,
			"byteLength":5120,
			"byteOffset":29824,
			"target":34962
		},
		{
			"buffer":0,
			"byteLength":960,
			"byteOffset":34944,
			"target":34963
		},
		{
			"buffer":0,
			"byteLength":3840,
			"byteOffset":35904,
			"target":34962
		},
		{
			"buffer":0,
			"byteLength":3840,
			"byteOffset":39744,
			"target":34962
		},
		{
			"buffer":0,
			"byteLength":2560,
			"byteOffset":43584,
			"target":34962
		},
		{
			"buffer":0,
			"byteLength":5120,
			"byteOffset":46144,
			"target":34962
		},
		{
			"buffer":0,
			"byteLength":960,
			"byteOffset":51264,
			"target":34963
		},
		{
			"buffer":0,
			"byteLength":3840,
			"byteOffset":52224,
			"target":34962
		},
		{
			"buffer":0,
			"byteLength":3840,
			"byteOffset":56064,
			"target":34962
		},
		{
			"buffer":0,
			"byteLength":2560,
			"byteOffset":59904,
			"target":34962
		},
		{
			"buffer":0,
			"byteLength":5120,
			"byteOffset":62464,
			"target":34962
		},
		{
			"buffer":0,
			"byteLength":960,
			"byteOffset":67584,
			"target":34963
		},
		{
			"buffer":0,
			"byteLength":3840,
			"byteOffset":68544,
			"target":34962
		},
		{
			"buffer":0,
			"byteLength":3840,
			"byteOffset":72384,
			"target":34962
		},
		{
			"buffer":0,
			"byteLength":2560,
			"byteOffset":76224,
			"target":34962
		},
		{
			"buffer":0,
			"byteLength":5120,
			"byteOffset":78784,
			"target":34962
		},
		{
			"buffer":0,
			"byteLength":960,
			"byteOffset":83904,
			"target":34963
		},
		{
			"buffer":0,
			"byteLength":1920,
			"byteOffset":84864,
			"target":34962
		},
		{
			"buffer":0,
			"byteLength":1920,
			"byteOffset":86784,
			"target":34962
		},
		{
			"buffer":0,
			"byteLength":1280,
			"byteOffset":88704,
			"target":34962
		},
		{
			"buffer":0,
			"byteLength":2560,
			"byteOffset":89984,
			"target":34962
		},
		{
			"buffer":0,
			"byteLength":480,
			"byteOffset":92544,
			"target":34963
		},
		{
			"buffer":0,
			"byteLength":4608,
			"byteOffset":93024,
			"target":34962
		},
		{
			"buffer":0,
			"byteLength":4608,
			"byteOffset":97632,
			"target":34962
		},
		{
			"buffer":0,
			"byteLength":3072,
			"byteOffset":102240,
			"target":34962
		},
		{
			"buffer":0,
			"byteLength":6144,
			"byteOffset":105312,
			"target":34962
		},
		{
			"buffer":0,
			"byteLength":1152,
			"byteOffset":111456,
			"target":34963
		},
		{
			"buffer":0,
			"byteLength":3840,
			"byteOffset":112608,
			"target":34962
		},
		{
			"buffer":0,
			"byteLength":3840,
			"byteOffset":116448,
			"target":34962
		},
		{
			"buffer":0,
			"byteLength":2560,
			"byteOffset":120288,
			"target":34962
		},
		{
			"buffer":0,
			"byteLength":5120,
			"byteOffset":122848,
			"target":34962
		},
		{
			"buffer":0,
			"byteLength":960,
			"byteOffset":127968,
			"target":34963
		},
		{
			"buffer":0,
			"byteLength":2304,
			"byteOffset":128928,
			"target":34962
		},
		{
			"buffer":0,
			"byteLength":2304,
			"byteOffset":131232,
			"target":34962
		},
		{
			"buffer":0,
			"byteLength":1536,
			"byteOffset":133536,
			"target":34962
		},
		{
			"buffer":0,
			"byteLength":3072,
			"byteOffset":135072,
			"target":34962
		},
		{
			"buffer":0,
			"byteLength":576,
			"byteOffset":138144,
			"target":34963
		}
	],
	"buffers":[
		{
			"byteLength":138720,
			"uri":"bodyattempt-20e09f76024b91678c496c41352fb06f.bin"
		}
	]
}
