{
	"asset":{
		"generator":"Khronos glTF Blender I/O v4.0.44",
		"version":"2.0"
	},
	"scene":0,
	"scenes":[
		{
			"name":"Scene",
			"nodes":[
				0,
				1,
				2,
				3,
				4,
				5
			]
		}
	],
	"nodes":[
		{
			"mesh":0,
			"name":"Torso",
			"rotation":[
				0.03650697320699692,
				0,
				0,
				0.9993335008621216
			],
			"scale":[
				0.24567842483520508,
				0.2142784297466278,
				0.2455626130104065
			],
			"translation":[
				0.0005093311774544418,
				0.1400800347328186,
				-0.060425739735364914
			]
		},
		{
			"mesh":1,
			"name":"Head",
			"scale":[
				0.14816059172153473,
				0.14816059172153473,
				0.14816059172153473
			],
			"translation":[
				0,
				-0.021671608090400696,
				0.033340934664011
			]
		},
		{
			"mesh":2,
			"name":"Leggies n Feetsies",
			"scale":[
				0.0635344535112381,
				0.0692848488688469,
				0.0635344535112381
			]
		},
		{
			"mesh":3,
			"name":"Arms n Hands",
			"rotation":[
				0,
				1,
				0,
				0
			],
			"scale":[
				-0.05528285726904869,
				-0.032567087560892105,
				-0.05528285726904869
			],
			"translation":[
				0.010531993582844734,
				0,
				0.017666399478912354
			]
		},
		{
			"mesh":4,
			"name":"Tail Nubbins",
			"scale":[
				0.05361942946910858,
				0.05361942946910858,
				0.05361942946910858
			]
		},
		{
			"mesh":5,
			"name":"Earsies",
			"rotation":[
				0.1777198612689972,
				0.0817752331495285,
				-0.9780343174934387,
				0.07195503264665604
			],
			"scale":[
				0.008052743040025234,
				0.039381884038448334,
				0.028712177649140358
			],
			"translation":[
				0,
				-0.021671608090400696,
				0.033340934664011
			]
		}
	],
	"materials":[
		{
			"doubleSided":true,
			"name":"Material",
			"pbrMetallicRoughness":{
				"baseColorFactor":[
					0.800000011920929,
					0.800000011920929,
					0.800000011920929,
					1
				],
				"metallicFactor":0,
				"roughnessFactor":0.5
			}
		},
		{
			"doubleSided":true,
			"name":"Material.002",
			"pbrMetallicRoughness":{
				"baseColorFactor":[
					0.800000011920929,
					0.800000011920929,
					0.800000011920929,
					1
				],
				"metallicFactor":0,
				"roughnessFactor":0.5
			}
		}
	],
	"meshes":[
		{
			"name":"Cube",
			"primitives":[
				{
					"attributes":{
						"POSITION":0,
						"NORMAL":1,
						"TEXCOORD_0":2,
						"TANGENT":3
					},
					"indices":4,
					"material":0
				},
				{
					"attributes":{
						"POSITION":5,
						"NORMAL":6,
						"TEXCOORD_0":7,
						"TANGENT":8
					},
					"indices":9,
					"material":1
				}
			]
		},
		{
			"name":"Cube.008",
			"primitives":[
				{
					"attributes":{
						"POSITION":10,
						"NORMAL":11,
						"TEXCOORD_0":12,
						"TANGENT":13
					},
					"indices":14
				}
			]
		},
		{
			"name":"Cube.009",
			"primitives":[
				{
					"attributes":{
						"POSITION":15,
						"NORMAL":16,
						"TEXCOORD_0":17,
						"TANGENT":18
					},
					"indices":19
				}
			]
		},
		{
			"name":"Cube.010",
			"primitives":[
				{
					"attributes":{
						"POSITION":20,
						"NORMAL":21,
						"TEXCOORD_0":22
					},
					"indices":23
				}
			]
		},
		{
			"name":"Cube.032",
			"primitives":[
				{
					"attributes":{
						"POSITION":24,
						"NORMAL":25,
						"TEXCOORD_0":26,
						"TANGENT":27
					},
					"indices":28
				}
			]
		},
		{
			"name":"Cube.001",
			"primitives":[
				{
					"attributes":{
						"POSITION":29,
						"NORMAL":30,
						"TEXCOORD_0":31,
						"TANGENT":32
					},
					"indices":33
				}
			]
		}
	],
	"accessors":[
		{
			"bufferView":0,
			"componentType":5126,
			"count":972,
			"max":[
				0.5190994143486023,
				5.097443580627441,
				0.38317087292671204
			],
			"min":[
				-0.5190994143486023,
				3.6173882484436035,
				-0.37482285499572754
			],
			"type":"VEC3"
		},
		{
			"bufferView":1,
			"componentType":5126,
			"count":972,
			"type":"VEC3"
		},
		{
			"bufferView":2,
			"componentType":5126,
			"count":972,
			"type":"VEC2"
		},
		{
			"bufferView":3,
			"componentType":5126,
			"count":972,
			"type":"VEC4"
		},
		{
			"bufferView":4,
			"componentType":5123,
			"count":1452,
			"type":"SCALAR"
		},
		{
			"bufferView":5,
			"componentType":5126,
			"count":768,
			"max":[
				0.5464857220649719,
				3.833578586578369,
				0.5601779222488403
			],
			"min":[
				-0.5464857220649719,
				2.7702226638793945,
				-0.33591005206108093
			],
			"type":"VEC3"
		},
		{
			"bufferView":6,
			"componentType":5126,
			"count":768,
			"type":"VEC3"
		},
		{
			"bufferView":7,
			"componentType":5126,
			"count":768,
			"type":"VEC2"
		},
		{
			"bufferView":8,
			"componentType":5126,
			"count":768,
			"type":"VEC4"
		},
		{
			"bufferView":9,
			"componentType":5123,
			"count":1152,
			"type":"SCALAR"
		},
		{
			"bufferView":10,
			"componentType":5126,
			"count":1508,
			"max":[
				0.7130911350250244,
				10.069087982177734,
				0.7949803471565247
			],
			"min":[
				-0.7062156796455383,
				8.126998901367188,
				-0.7787776589393616
			],
			"type":"VEC3"
		},
		{
			"bufferView":11,
			"componentType":5126,
			"count":1508,
			"type":"VEC3"
		},
		{
			"bufferView":12,
			"componentType":5126,
			"count":1508,
			"type":"VEC2"
		},
		{
			"bufferView":13,
			"componentType":5126,
			"count":1508,
			"type":"VEC4"
		},
		{
			"bufferView":14,
			"componentType":5123,
			"count":2244,
			"type":"SCALAR"
		},
		{
			"bufferView":15,
			"componentType":5126,
			"count":3484,
			"max":[
				2.4163644313812256,
				12.338909149169922,
				1.5054677724838257
			],
			"min":[
				-2.4003312587738037,
				0.014840364456176758,
				-2.6977615356445312
			],
			"type":"VEC3"
		},
		{
			"bufferView":16,
			"componentType":5126,
			"count":3484,
			"type":"VEC3"
		},
		{
			"bufferView":17,
			"componentType":5126,
			"count":3484,
			"type":"VEC2"
		},
		{
			"bufferView":18,
			"componentType":5126,
			"count":3484,
			"type":"VEC4"
		},
		{
			"bufferView":19,
			"componentType":5123,
			"count":5196,
			"type":"SCALAR"
		},
		{
			"bufferView":20,
			"componentType":5126,
			"count":7060,
			"max":[
				13.13564395904541,
				-31.052797317504883,
				0.9169542789459229
			],
			"min":[
				-13.498241424560547,
				-35.51151657104492,
				-1.0951619148254395
			],
			"type":"VEC3"
		},
		{
			"bufferView":21,
			"componentType":5126,
			"count":7060,
			"type":"VEC3"
		},
		{
			"bufferView":22,
			"componentType":5126,
			"count":7060,
			"type":"VEC2"
		},
		{
			"bufferView":23,
			"componentType":5123,
			"count":10536,
			"type":"SCALAR"
		},
		{
			"bufferView":24,
			"componentType":5126,
			"count":96,
			"max":[
				0.8395062685012817,
				17.103302001953125,
				2.8922486305236816
			],
			"min":[
				-0.8395062685012817,
				15.424285888671875,
				1.2132362127304077
			],
			"type":"VEC3"
		},
		{
			"bufferView":25,
			"componentType":5126,
			"count":96,
			"type":"VEC3"
		},
		{
			"bufferView":26,
			"componentType":5126,
			"count":96,
			"type":"VEC2"
		},
		{
			"bufferView":27,
			"componentType":5126,
			"count":96,
			"type":"VEC4"
		},
		{
			"bufferView":28,
			"componentType":5123,
			"count":144,
			"type":"SCALAR"
		},
		{
			"bufferView":29,
			"componentType":5126,
			"count":768,
			"max":[
				-5.5488715171813965,
				-31.444955825805664,
				-5.661719799041748
			],
			"min":[
				-34.559226989746094,
				-34.30584716796875,
				-9.937286376953125
			],
			"type":"VEC3"
		},
		{
			"bufferView":30,
			"componentType":5126,
			"count":768,
			"type":"VEC3"
		},
		{
			"bufferView":31,
			"componentType":5126,
			"count":768,
			"type":"VEC2"
		},
		{
			"bufferView":32,
			"componentType":5126,
			"count":768,
			"type":"VEC4"
		},
		{
			"bufferView":33,
			"componentType":5123,
			"count":1152,
			"type":"SCALAR"
		}
	],
	"bufferViews":[
		{
			"buffer":0,
			"byteLength":11664,
			"byteOffset":0,
			"target":34962
		},
		{
			"buffer":0,
			"byteLength":11664,
			"byteOffset":11664,
			"target":34962
		},
		{
			"buffer":0,
			"byteLength":7776,
			"byteOffset":23328,
			"target":34962
		},
		{
			"buffer":0,
			"byteLength":15552,
			"byteOffset":31104,
			"target":34962
		},
		{
			"buffer":0,
			"byteLength":2904,
			"byteOffset":46656,
			"target":34963
		},
		{
			"buffer":0,
			"byteLength":9216,
			"byteOffset":49560,
			"target":34962
		},
		{
			"buffer":0,
			"byteLength":9216,
			"byteOffset":58776,
			"target":34962
		},
		{
			"buffer":0,
			"byteLength":6144,
			"byteOffset":67992,
			"target":34962
		},
		{
			"buffer":0,
			"byteLength":12288,
			"byteOffset":74136,
			"target":34962
		},
		{
			"buffer":0,
			"byteLength":2304,
			"byteOffset":86424,
			"target":34963
		},
		{
			"buffer":0,
			"byteLength":18096,
			"byteOffset":88728,
			"target":34962
		},
		{
			"buffer":0,
			"byteLength":18096,
			"byteOffset":106824,
			"target":34962
		},
		{
			"buffer":0,
			"byteLength":12064,
			"byteOffset":124920,
			"target":34962
		},
		{
			"buffer":0,
			"byteLength":24128,
			"byteOffset":136984,
			"target":34962
		},
		{
			"buffer":0,
			"byteLength":4488,
			"byteOffset":161112,
			"target":34963
		},
		{
			"buffer":0,
			"byteLength":41808,
			"byteOffset":165600,
			"target":34962
		},
		{
			"buffer":0,
			"byteLength":41808,
			"byteOffset":207408,
			"target":34962
		},
		{
			"buffer":0,
			"byteLength":27872,
			"byteOffset":249216,
			"target":34962
		},
		{
			"buffer":0,
			"byteLength":55744,
			"byteOffset":277088,
			"target":34962
		},
		{
			"buffer":0,
			"byteLength":10392,
			"byteOffset":332832,
			"target":34963
		},
		{
			"buffer":0,
			"byteLength":84720,
			"byteOffset":343224,
			"target":34962
		},
		{
			"buffer":0,
			"byteLength":84720,
			"byteOffset":427944,
			"target":34962
		},
		{
			"buffer":0,
			"byteLength":56480,
			"byteOffset":512664,
			"target":34962
		},
		{
			"buffer":0,
			"byteLength":21072,
			"byteOffset":569144,
			"target":34963
		},
		{
			"buffer":0,
			"byteLength":1152,
			"byteOffset":590216,
			"target":34962
		},
		{
			"buffer":0,
			"byteLength":1152,
			"byteOffset":591368,
			"target":34962
		},
		{
			"buffer":0,
			"byteLength":768,
			"byteOffset":592520,
			"target":34962
		},
		{
			"buffer":0,
			"byteLength":1536,
			"byteOffset":593288,
			"target":34962
		},
		{
			"buffer":0,
			"byteLength":288,
			"byteOffset":594824,
			"target":34963
		},
		{
			"buffer":0,
			"byteLength":9216,
			"byteOffset":595112,
			"target":34962
		},
		{
			"buffer":0,
			"byteLength":9216,
			"byteOffset":604328,
			"target":34962
		},
		{
			"buffer":0,
			"byteLength":6144,
			"byteOffset":613544,
			"target":34962
		},
		{
			"buffer":0,
			"byteLength":12288,
			"byteOffset":619688,
			"target":34962
		},
		{
			"buffer":0,
			"byteLength":2304,
			"byteOffset":631976,
			"target":34963
		}
	],
	"buffers":[
		{
			"byteLength":634280,
			"uri":"bodyattempt5-3ba5f22402eadee504e371d64d185b84.bin"
		}
	]
}
