{
	"asset":{
		"generator":"Khronos glTF Blender I/O v4.0.44",
		"version":"2.0"
	},
	"scene":0,
	"scenes":[
		{
			"name":"Scene",
			"nodes":[
				0,
				1,
				2,
				3,
				4
			]
		}
	],
	"nodes":[
		{
			"mesh":0,
			"name":"Cube.001",
			"scale":[
				0.04553908109664917,
				0.04553908109664917,
				0.04553908109664917
			],
			"translation":[
				0,
				0.41182392835617065,
				0
			]
		},
		{
			"mesh":1,
			"name":"Cube.004",
			"rotation":[
				0.13994254171848297,
				-0.9901596307754517,
				0,
				1.6131748736825102e-07
			],
			"scale":[
				-0.09539008885622025,
				-0.09539008885622025,
				-0.09539008140563965
			],
			"translation":[
				0,
				0.46146368980407715,
				0
			]
		},
		{
			"mesh":2,
			"name":"Cube.003",
			"rotation":[
				0.08005015552043915,
				0.7579963803291321,
				-0.11236914247274399,
				0.6375002861022949
			],
			"scale":[
				0.011035365983843803,
				0.011035365983843803,
				0.011035365983843803
			],
			"translation":[
				0.0017207505879923701,
				0.4512905776500702,
				0.0017207504715770483
			]
		},
		{
			"mesh":3,
			"name":"Cube.002",
			"scale":[
				0.019151508808135986,
				0.019151508808135986,
				0.019151508808135986
			]
		},
		{
			"mesh":4,
			"name":"Cube.005",
			"rotation":[
				-0.2134389579296112,
				0,
				0,
				0.9769564270973206
			],
			"scale":[
				0.03953731060028076,
				0.03953731060028076,
				0.03953731060028076
			],
			"translation":[
				0,
				0.06910035759210587,
				0.0429486408829689
			]
		}
	],
	"materials":[
		{
			"doubleSided":true,
			"name":"Material.003",
			"pbrMetallicRoughness":{
				"baseColorFactor":[
					0.800000011920929,
					0.800000011920929,
					0.800000011920929,
					1
				],
				"metallicFactor":0,
				"roughnessFactor":0.5
			}
		},
		{
			"doubleSided":true,
			"name":"Material",
			"pbrMetallicRoughness":{
				"baseColorFactor":[
					0.800000011920929,
					0.800000011920929,
					0.800000011920929,
					1
				],
				"metallicFactor":0,
				"roughnessFactor":0.5
			}
		},
		{
			"doubleSided":true,
			"name":"Material.001",
			"pbrMetallicRoughness":{
				"baseColorFactor":[
					0.800000011920929,
					0.800000011920929,
					0.800000011920929,
					1
				],
				"metallicFactor":0,
				"roughnessFactor":0.5
			}
		},
		{
			"doubleSided":true,
			"name":"Material.002",
			"pbrMetallicRoughness":{
				"baseColorFactor":[
					0.800000011920929,
					0.800000011920929,
					0.800000011920929,
					1
				],
				"metallicFactor":0,
				"roughnessFactor":0.5
			}
		},
		{
			"doubleSided":true,
			"name":"Material.004",
			"pbrMetallicRoughness":{
				"baseColorFactor":[
					0.800000011920929,
					0.800000011920929,
					0.800000011920929,
					1
				],
				"metallicFactor":0,
				"roughnessFactor":0.5
			}
		},
		{
			"doubleSided":true,
			"name":"Material.005",
			"pbrMetallicRoughness":{
				"baseColorFactor":[
					0.800000011920929,
					0.800000011920929,
					0.800000011920929,
					1
				],
				"metallicFactor":0,
				"roughnessFactor":0.5
			}
		}
	],
	"meshes":[
		{
			"name":"Cube.001",
			"primitives":[
				{
					"attributes":{
						"POSITION":0,
						"NORMAL":1,
						"TEXCOORD_0":2,
						"TANGENT":3
					},
					"indices":4
				}
			]
		},
		{
			"name":"Cube.004",
			"primitives":[
				{
					"attributes":{
						"POSITION":5,
						"NORMAL":6,
						"TEXCOORD_0":7,
						"TANGENT":8
					},
					"indices":9,
					"material":0
				},
				{
					"attributes":{
						"POSITION":10,
						"NORMAL":11,
						"TEXCOORD_0":12,
						"TANGENT":13
					},
					"indices":14,
					"material":1
				},
				{
					"attributes":{
						"POSITION":15,
						"NORMAL":16,
						"TEXCOORD_0":17,
						"TANGENT":18
					},
					"indices":19,
					"material":2
				},
				{
					"attributes":{
						"POSITION":20,
						"NORMAL":21,
						"TEXCOORD_0":22,
						"TANGENT":23
					},
					"indices":24,
					"material":3
				},
				{
					"attributes":{
						"POSITION":25,
						"NORMAL":26,
						"TEXCOORD_0":27,
						"TANGENT":28
					},
					"indices":29,
					"material":4
				},
				{
					"attributes":{
						"POSITION":30,
						"NORMAL":31,
						"TEXCOORD_0":32,
						"TANGENT":33
					},
					"indices":34,
					"material":5
				}
			]
		},
		{
			"name":"Cube.009",
			"primitives":[
				{
					"attributes":{
						"POSITION":35,
						"NORMAL":36,
						"TEXCOORD_0":37,
						"TANGENT":38
					},
					"indices":39
				}
			]
		},
		{
			"name":"Cube.010",
			"primitives":[
				{
					"attributes":{
						"POSITION":40,
						"NORMAL":41,
						"TEXCOORD_0":42,
						"TANGENT":43
					},
					"indices":44
				}
			]
		},
		{
			"name":"Cube.011",
			"primitives":[
				{
					"attributes":{
						"POSITION":45,
						"NORMAL":46,
						"TEXCOORD_0":47,
						"TANGENT":48
					},
					"indices":49
				}
			]
		}
	],
	"accessors":[
		{
			"bufferView":0,
			"componentType":5126,
			"count":96,
			"max":[
				0.6717508435249329,
				0.8048232197761536,
				0.6717508435249329
			],
			"min":[
				-0.6717508435249329,
				-1.2370268106460571,
				-0.6717508435249329
			],
			"type":"VEC3"
		},
		{
			"bufferView":1,
			"componentType":5126,
			"count":96,
			"type":"VEC3"
		},
		{
			"bufferView":2,
			"componentType":5126,
			"count":96,
			"type":"VEC2"
		},
		{
			"bufferView":3,
			"componentType":5126,
			"count":96,
			"type":"VEC4"
		},
		{
			"bufferView":4,
			"componentType":5123,
			"count":144,
			"type":"SCALAR"
		},
		{
			"bufferView":5,
			"componentType":5126,
			"count":56,
			"max":[
				-0.20543615520000458,
				0.6709055304527283,
				0.5740565061569214
			],
			"min":[
				-2.6892623901367188,
				-1.7650638818740845,
				-0.5778341889381409
			],
			"type":"VEC3"
		},
		{
			"bufferView":6,
			"componentType":5126,
			"count":56,
			"type":"VEC3"
		},
		{
			"bufferView":7,
			"componentType":5126,
			"count":56,
			"type":"VEC2"
		},
		{
			"bufferView":8,
			"componentType":5126,
			"count":56,
			"type":"VEC4"
		},
		{
			"bufferView":9,
			"componentType":5123,
			"count":84,
			"type":"SCALAR"
		},
		{
			"bufferView":10,
			"componentType":5126,
			"count":56,
			"max":[
				3.2161731719970703,
				0.6772578954696655,
				0.5778345465660095
			],
			"min":[
				-0.18341200053691864,
				-0.3649075925350189,
				-0.5740561485290527
			],
			"type":"VEC3"
		},
		{
			"bufferView":11,
			"componentType":5126,
			"count":56,
			"type":"VEC3"
		},
		{
			"bufferView":12,
			"componentType":5126,
			"count":56,
			"type":"VEC2"
		},
		{
			"bufferView":13,
			"componentType":5126,
			"count":56,
			"type":"VEC4"
		},
		{
			"bufferView":14,
			"componentType":5123,
			"count":84,
			"type":"SCALAR"
		},
		{
			"bufferView":15,
			"componentType":5126,
			"count":56,
			"max":[
				1.5397840738296509,
				0.6919832229614258,
				0.024060532450675964
			],
			"min":[
				-0.1719064712524414,
				-0.6823991537094116,
				-2.781564474105835
			],
			"type":"VEC3"
		},
		{
			"bufferView":16,
			"componentType":5126,
			"count":56,
			"type":"VEC3"
		},
		{
			"bufferView":17,
			"componentType":5126,
			"count":56,
			"type":"VEC2"
		},
		{
			"bufferView":18,
			"componentType":5126,
			"count":56,
			"type":"VEC4"
		},
		{
			"bufferView":19,
			"componentType":5123,
			"count":84,
			"type":"SCALAR"
		},
		{
			"bufferView":20,
			"componentType":5126,
			"count":56,
			"max":[
				0.1520088165998459,
				0.6888070106506348,
				-0.043911512941122055
			],
			"min":[
				-1.4129338264465332,
				-1.396934986114502,
				-2.5411736965179443
			],
			"type":"VEC3"
		},
		{
			"bufferView":21,
			"componentType":5126,
			"count":56,
			"type":"VEC3"
		},
		{
			"bufferView":22,
			"componentType":5126,
			"count":56,
			"type":"VEC2"
		},
		{
			"bufferView":23,
			"componentType":5126,
			"count":56,
			"type":"VEC4"
		},
		{
			"bufferView":24,
			"componentType":5123,
			"count":84,
			"type":"SCALAR"
		},
		{
			"bufferView":25,
			"componentType":5126,
			"count":56,
			"max":[
				0.18188537657260895,
				0.6561800837516785,
				2.781564712524414
			],
			"min":[
				-1.0128720998764038,
				-1.281545877456665,
				-0.024060508236289024
			],
			"type":"VEC3"
		},
		{
			"bufferView":26,
			"componentType":5126,
			"count":56,
			"type":"VEC3"
		},
		{
			"bufferView":27,
			"componentType":5126,
			"count":56,
			"type":"VEC2"
		},
		{
			"bufferView":28,
			"componentType":5126,
			"count":56,
			"type":"VEC4"
		},
		{
			"bufferView":29,
			"componentType":5123,
			"count":84,
			"type":"SCALAR"
		},
		{
			"bufferView":30,
			"componentType":5126,
			"count":56,
			"max":[
				1.9398462772369385,
				0.6593563556671143,
				2.5411722660064697
			],
			"min":[
				-0.2524118423461914,
				-0.5720812678337097,
				0.043911539018154144
			],
			"type":"VEC3"
		},
		{
			"bufferView":31,
			"componentType":5126,
			"count":56,
			"type":"VEC3"
		},
		{
			"bufferView":32,
			"componentType":5126,
			"count":56,
			"type":"VEC2"
		},
		{
			"bufferView":33,
			"componentType":5126,
			"count":56,
			"type":"VEC4"
		},
		{
			"bufferView":34,
			"componentType":5123,
			"count":84,
			"type":"SCALAR"
		},
		{
			"bufferView":35,
			"componentType":5126,
			"count":1536,
			"max":[
				2.2966177463531494,
				5.159505367279053,
				0.6977468132972717
			],
			"min":[
				-2.1690831184387207,
				-0.9999998807907104,
				-3.2989726066589355
			],
			"type":"VEC3"
		},
		{
			"bufferView":36,
			"componentType":5126,
			"count":1536,
			"type":"VEC3"
		},
		{
			"bufferView":37,
			"componentType":5126,
			"count":1536,
			"type":"VEC2"
		},
		{
			"bufferView":38,
			"componentType":5126,
			"count":1536,
			"type":"VEC4"
		},
		{
			"bufferView":39,
			"componentType":5123,
			"count":2304,
			"type":"SCALAR"
		},
		{
			"bufferView":40,
			"componentType":5126,
			"count":260,
			"max":[
				0.5044721961021423,
				20.18633460998535,
				0.5044721961021423
			],
			"min":[
				-0.5044721961021423,
				-1.429123044013977,
				-0.5044721961021423
			],
			"type":"VEC3"
		},
		{
			"bufferView":41,
			"componentType":5126,
			"count":260,
			"type":"VEC3"
		},
		{
			"bufferView":42,
			"componentType":5126,
			"count":260,
			"type":"VEC2"
		},
		{
			"bufferView":43,
			"componentType":5126,
			"count":260,
			"type":"VEC4"
		},
		{
			"bufferView":44,
			"componentType":5123,
			"count":576,
			"type":"SCALAR"
		},
		{
			"bufferView":45,
			"componentType":5126,
			"count":112,
			"max":[
				1.605147361755371,
				10.47504997253418,
				2.09909987449646
			],
			"min":[
				-5.299733638763428,
				2.4144186973571777,
				-2.876676321029663
			],
			"type":"VEC3"
		},
		{
			"bufferView":46,
			"componentType":5126,
			"count":112,
			"type":"VEC3"
		},
		{
			"bufferView":47,
			"componentType":5126,
			"count":112,
			"type":"VEC2"
		},
		{
			"bufferView":48,
			"componentType":5126,
			"count":112,
			"type":"VEC4"
		},
		{
			"bufferView":49,
			"componentType":5123,
			"count":168,
			"type":"SCALAR"
		}
	],
	"bufferViews":[
		{
			"buffer":0,
			"byteLength":1152,
			"byteOffset":0,
			"target":34962
		},
		{
			"buffer":0,
			"byteLength":1152,
			"byteOffset":1152,
			"target":34962
		},
		{
			"buffer":0,
			"byteLength":768,
			"byteOffset":2304,
			"target":34962
		},
		{
			"buffer":0,
			"byteLength":1536,
			"byteOffset":3072,
			"target":34962
		},
		{
			"buffer":0,
			"byteLength":288,
			"byteOffset":4608,
			"target":34963
		},
		{
			"buffer":0,
			"byteLength":672,
			"byteOffset":4896,
			"target":34962
		},
		{
			"buffer":0,
			"byteLength":672,
			"byteOffset":5568,
			"target":34962
		},
		{
			"buffer":0,
			"byteLength":448,
			"byteOffset":6240,
			"target":34962
		},
		{
			"buffer":0,
			"byteLength":896,
			"byteOffset":6688,
			"target":34962
		},
		{
			"buffer":0,
			"byteLength":168,
			"byteOffset":7584,
			"target":34963
		},
		{
			"buffer":0,
			"byteLength":672,
			"byteOffset":7752,
			"target":34962
		},
		{
			"buffer":0,
			"byteLength":672,
			"byteOffset":8424,
			"target":34962
		},
		{
			"buffer":0,
			"byteLength":448,
			"byteOffset":9096,
			"target":34962
		},
		{
			"buffer":0,
			"byteLength":896,
			"byteOffset":9544,
			"target":34962
		},
		{
			"buffer":0,
			"byteLength":168,
			"byteOffset":10440,
			"target":34963
		},
		{
			"buffer":0,
			"byteLength":672,
			"byteOffset":10608,
			"target":34962
		},
		{
			"buffer":0,
			"byteLength":672,
			"byteOffset":11280,
			"target":34962
		},
		{
			"buffer":0,
			"byteLength":448,
			"byteOffset":11952,
			"target":34962
		},
		{
			"buffer":0,
			"byteLength":896,
			"byteOffset":12400,
			"target":34962
		},
		{
			"buffer":0,
			"byteLength":168,
			"byteOffset":13296,
			"target":34963
		},
		{
			"buffer":0,
			"byteLength":672,
			"byteOffset":13464,
			"target":34962
		},
		{
			"buffer":0,
			"byteLength":672,
			"byteOffset":14136,
			"target":34962
		},
		{
			"buffer":0,
			"byteLength":448,
			"byteOffset":14808,
			"target":34962
		},
		{
			"buffer":0,
			"byteLength":896,
			"byteOffset":15256,
			"target":34962
		},
		{
			"buffer":0,
			"byteLength":168,
			"byteOffset":16152,
			"target":34963
		},
		{
			"buffer":0,
			"byteLength":672,
			"byteOffset":16320,
			"target":34962
		},
		{
			"buffer":0,
			"byteLength":672,
			"byteOffset":16992,
			"target":34962
		},
		{
			"buffer":0,
			"byteLength":448,
			"byteOffset":17664,
			"target":34962
		},
		{
			"buffer":0,
			"byteLength":896,
			"byteOffset":18112,
			"target":34962
		},
		{
			"buffer":0,
			"byteLength":168,
			"byteOffset":19008,
			"target":34963
		},
		{
			"buffer":0,
			"byteLength":672,
			"byteOffset":19176,
			"target":34962
		},
		{
			"buffer":0,
			"byteLength":672,
			"byteOffset":19848,
			"target":34962
		},
		{
			"buffer":0,
			"byteLength":448,
			"byteOffset":20520,
			"target":34962
		},
		{
			"buffer":0,
			"byteLength":896,
			"byteOffset":20968,
			"target":34962
		},
		{
			"buffer":0,
			"byteLength":168,
			"byteOffset":21864,
			"target":34963
		},
		{
			"buffer":0,
			"byteLength":18432,
			"byteOffset":22032,
			"target":34962
		},
		{
			"buffer":0,
			"byteLength":18432,
			"byteOffset":40464,
			"target":34962
		},
		{
			"buffer":0,
			"byteLength":12288,
			"byteOffset":58896,
			"target":34962
		},
		{
			"buffer":0,
			"byteLength":24576,
			"byteOffset":71184,
			"target":34962
		},
		{
			"buffer":0,
			"byteLength":4608,
			"byteOffset":95760,
			"target":34963
		},
		{
			"buffer":0,
			"byteLength":3120,
			"byteOffset":100368,
			"target":34962
		},
		{
			"buffer":0,
			"byteLength":3120,
			"byteOffset":103488,
			"target":34962
		},
		{
			"buffer":0,
			"byteLength":2080,
			"byteOffset":106608,
			"target":34962
		},
		{
			"buffer":0,
			"byteLength":4160,
			"byteOffset":108688,
			"target":34962
		},
		{
			"buffer":0,
			"byteLength":1152,
			"byteOffset":112848,
			"target":34963
		},
		{
			"buffer":0,
			"byteLength":1344,
			"byteOffset":114000,
			"target":34962
		},
		{
			"buffer":0,
			"byteLength":1344,
			"byteOffset":115344,
			"target":34962
		},
		{
			"buffer":0,
			"byteLength":896,
			"byteOffset":116688,
			"target":34962
		},
		{
			"buffer":0,
			"byteLength":1792,
			"byteOffset":117584,
			"target":34962
		},
		{
			"buffer":0,
			"byteLength":336,
			"byteOffset":119376,
			"target":34963
		}
	],
	"buffers":[
		{
			"byteLength":119712,
			"uri":"fleur1-2b98e35a50b173d58e4d9e71e9cb3266.bin"
		}
	]
}
