{
	"asset":{
		"generator":"Khronos glTF Blender I/O v4.0.44",
		"version":"2.0"
	},
	"scene":0,
	"scenes":[
		{
			"name":"Scene",
			"nodes":[
				0,
				1,
				2,
				3,
				4,
				5,
				6
			]
		}
	],
	"nodes":[
		{
			"mesh":0,
			"name":"Cube",
			"scale":[
				0.06524544954299927,
				0.06524544954299927,
				0.06524544954299927
			],
			"translation":[
				-0.020129209384322166,
				1.1387251615524292,
				-0.06407119333744049
			]
		},
		{
			"mesh":1,
			"name":"Cube.001",
			"rotation":[
				0,
				-0.2238863855600357,
				0,
				0.9746152758598328
			],
			"scale":[
				0.021216759458184242,
				0.02121676132082939,
				0.021216759458184242
			],
			"translation":[
				0.00891578197479248,
				1.1114325523376465,
				-0.1163322925567627
			]
		},
		{
			"mesh":2,
			"name":"Cube.002",
			"scale":[
				0.021450627595186234,
				0.021450627595186234,
				0.021450627595186234
			],
			"translation":[
				-0.18603457510471344,
				1.1431055068969727,
				-0.06407119333744049
			]
		},
		{
			"mesh":3,
			"name":"Cube.003",
			"scale":[
				0.012349236756563187,
				0.012349236756563187,
				0.012349236756563187
			],
			"translation":[
				0.039228592067956924,
				1.1871479749679565,
				-0.06407119333744049
			]
		},
		{
			"mesh":4,
			"name":"Cube.004",
			"scale":[
				0.012906000949442387,
				0.012906000949442387,
				0.012906000949442387
			],
			"translation":[
				0.07818348705768585,
				1.1407771110534668,
				-0.07703633606433868
			]
		},
		{
			"mesh":5,
			"name":"Cube.005",
			"rotation":[
				0,
				-0.11885867267847061,
				0,
				0.9929112792015076
			],
			"scale":[
				0.012069116346538067,
				0.012069116346538067,
				0.012069116346538067
			],
			"translation":[
				-0.055076781660318375,
				1.1045610904693604,
				-0.10423625260591507
			]
		},
		{
			"mesh":6,
			"name":"Cube.006",
			"scale":[
				0.0036326395347714424,
				0.0036326395347714424,
				0.0036326395347714424
			],
			"translation":[
				-0.03910243511199951,
				1.1871479749679565,
				-0.06407119333744049
			]
		}
	],
	"materials":[
		{
			"doubleSided":true,
			"name":"Material",
			"pbrMetallicRoughness":{
				"baseColorFactor":[
					0.800000011920929,
					0.800000011920929,
					0.800000011920929,
					1
				],
				"metallicFactor":0,
				"roughnessFactor":0.5
			}
		}
	],
	"meshes":[
		{
			"name":"Cube",
			"primitives":[
				{
					"attributes":{
						"POSITION":0,
						"NORMAL":1,
						"TEXCOORD_0":2,
						"TANGENT":3
					},
					"indices":4,
					"material":0
				}
			]
		},
		{
			"name":"Cube.001",
			"primitives":[
				{
					"attributes":{
						"POSITION":5,
						"NORMAL":6,
						"TEXCOORD_0":7,
						"TANGENT":8
					},
					"indices":9
				}
			]
		},
		{
			"name":"Cube.003",
			"primitives":[
				{
					"attributes":{
						"POSITION":10,
						"NORMAL":11,
						"TEXCOORD_0":12,
						"TANGENT":13
					},
					"indices":14
				}
			]
		},
		{
			"name":"Cube.004",
			"primitives":[
				{
					"attributes":{
						"POSITION":15,
						"NORMAL":16,
						"TEXCOORD_0":17,
						"TANGENT":18
					},
					"indices":19
				}
			]
		},
		{
			"name":"Cube.005",
			"primitives":[
				{
					"attributes":{
						"POSITION":20,
						"NORMAL":21,
						"TEXCOORD_0":22,
						"TANGENT":23
					},
					"indices":24
				}
			]
		},
		{
			"name":"Cube.006",
			"primitives":[
				{
					"attributes":{
						"POSITION":25,
						"NORMAL":26,
						"TEXCOORD_0":27,
						"TANGENT":28
					},
					"indices":29
				}
			]
		},
		{
			"name":"Cube.008",
			"primitives":[
				{
					"attributes":{
						"POSITION":30,
						"NORMAL":31,
						"TEXCOORD_0":32,
						"TANGENT":33
					},
					"indices":34
				}
			]
		}
	],
	"accessors":[
		{
			"bufferView":0,
			"componentType":5126,
			"count":256,
			"max":[
				2.0865116119384766,
				0.7496034502983093,
				0.35307151079177856
			],
			"min":[
				-2.5720300674438477,
				-0.780714213848114,
				-0.35307151079177856
			],
			"type":"VEC3"
		},
		{
			"bufferView":1,
			"componentType":5126,
			"count":256,
			"type":"VEC3"
		},
		{
			"bufferView":2,
			"componentType":5126,
			"count":256,
			"type":"VEC2"
		},
		{
			"bufferView":3,
			"componentType":5126,
			"count":256,
			"type":"VEC4"
		},
		{
			"bufferView":4,
			"componentType":5123,
			"count":384,
			"type":"SCALAR"
		},
		{
			"bufferView":5,
			"componentType":5126,
			"count":192,
			"max":[
				3.673121213912964,
				0.2593100965023041,
				12.023028373718262
			],
			"min":[
				-7.354298114776611,
				-1.1039299964904785,
				-3.1268301010131836
			],
			"type":"VEC3"
		},
		{
			"bufferView":6,
			"componentType":5126,
			"count":192,
			"type":"VEC3"
		},
		{
			"bufferView":7,
			"componentType":5126,
			"count":192,
			"type":"VEC2"
		},
		{
			"bufferView":8,
			"componentType":5126,
			"count":192,
			"type":"VEC4"
		},
		{
			"bufferView":9,
			"componentType":5123,
			"count":288,
			"type":"SCALAR"
		},
		{
			"bufferView":10,
			"componentType":5126,
			"count":384,
			"max":[
				1.6906648874282837,
				3.826493263244629,
				0.33834949135780334
			],
			"min":[
				-4.765261650085449,
				-3.301792860031128,
				-0.33834946155548096
			],
			"type":"VEC3"
		},
		{
			"bufferView":11,
			"componentType":5126,
			"count":384,
			"type":"VEC3"
		},
		{
			"bufferView":12,
			"componentType":5126,
			"count":384,
			"type":"VEC2"
		},
		{
			"bufferView":13,
			"componentType":5126,
			"count":384,
			"type":"VEC4"
		},
		{
			"bufferView":14,
			"componentType":5123,
			"count":576,
			"type":"SCALAR"
		},
		{
			"bufferView":15,
			"componentType":5126,
			"count":384,
			"max":[
				1,
				7.168056964874268,
				0.47232744097709656
			],
			"min":[
				-12.329038619995117,
				-2.3227458000183105,
				-0.47232744097709656
			],
			"type":"VEC3"
		},
		{
			"bufferView":16,
			"componentType":5126,
			"count":384,
			"type":"VEC3"
		},
		{
			"bufferView":17,
			"componentType":5126,
			"count":384,
			"type":"VEC2"
		},
		{
			"bufferView":18,
			"componentType":5126,
			"count":384,
			"type":"VEC4"
		},
		{
			"bufferView":19,
			"componentType":5123,
			"count":576,
			"type":"SCALAR"
		},
		{
			"bufferView":20,
			"componentType":5126,
			"count":192,
			"max":[
				0.8395067453384399,
				0.8395063877105713,
				2.848672389984131
			],
			"min":[
				-0.8395062685012817,
				-0.8395063877105713,
				-0.8395062685012817
			],
			"type":"VEC3"
		},
		{
			"bufferView":21,
			"componentType":5126,
			"count":192,
			"type":"VEC3"
		},
		{
			"bufferView":22,
			"componentType":5126,
			"count":192,
			"type":"VEC2"
		},
		{
			"bufferView":23,
			"componentType":5126,
			"count":192,
			"type":"VEC4"
		},
		{
			"bufferView":24,
			"componentType":5123,
			"count":288,
			"type":"SCALAR"
		},
		{
			"bufferView":25,
			"componentType":5126,
			"count":192,
			"max":[
				4.144071578979492,
				0.25931012630462646,
				12.549297332763672
			],
			"min":[
				-7.354298114776611,
				-1.103930115699768,
				-3.1268301010131836
			],
			"type":"VEC3"
		},
		{
			"bufferView":26,
			"componentType":5126,
			"count":192,
			"type":"VEC3"
		},
		{
			"bufferView":27,
			"componentType":5126,
			"count":192,
			"type":"VEC2"
		},
		{
			"bufferView":28,
			"componentType":5126,
			"count":192,
			"type":"VEC4"
		},
		{
			"bufferView":29,
			"componentType":5123,
			"count":288,
			"type":"SCALAR"
		},
		{
			"bufferView":30,
			"componentType":5126,
			"count":384,
			"max":[
				1,
				10.93217658996582,
				0.47232744097709656
			],
			"min":[
				-21.63601303100586,
				-2.3227458000183105,
				-0.47232744097709656
			],
			"type":"VEC3"
		},
		{
			"bufferView":31,
			"componentType":5126,
			"count":384,
			"type":"VEC3"
		},
		{
			"bufferView":32,
			"componentType":5126,
			"count":384,
			"type":"VEC2"
		},
		{
			"bufferView":33,
			"componentType":5126,
			"count":384,
			"type":"VEC4"
		},
		{
			"bufferView":34,
			"componentType":5123,
			"count":576,
			"type":"SCALAR"
		}
	],
	"bufferViews":[
		{
			"buffer":0,
			"byteLength":3072,
			"byteOffset":0,
			"target":34962
		},
		{
			"buffer":0,
			"byteLength":3072,
			"byteOffset":3072,
			"target":34962
		},
		{
			"buffer":0,
			"byteLength":2048,
			"byteOffset":6144,
			"target":34962
		},
		{
			"buffer":0,
			"byteLength":4096,
			"byteOffset":8192,
			"target":34962
		},
		{
			"buffer":0,
			"byteLength":768,
			"byteOffset":12288,
			"target":34963
		},
		{
			"buffer":0,
			"byteLength":2304,
			"byteOffset":13056,
			"target":34962
		},
		{
			"buffer":0,
			"byteLength":2304,
			"byteOffset":15360,
			"target":34962
		},
		{
			"buffer":0,
			"byteLength":1536,
			"byteOffset":17664,
			"target":34962
		},
		{
			"buffer":0,
			"byteLength":3072,
			"byteOffset":19200,
			"target":34962
		},
		{
			"buffer":0,
			"byteLength":576,
			"byteOffset":22272,
			"target":34963
		},
		{
			"buffer":0,
			"byteLength":4608,
			"byteOffset":22848,
			"target":34962
		},
		{
			"buffer":0,
			"byteLength":4608,
			"byteOffset":27456,
			"target":34962
		},
		{
			"buffer":0,
			"byteLength":3072,
			"byteOffset":32064,
			"target":34962
		},
		{
			"buffer":0,
			"byteLength":6144,
			"byteOffset":35136,
			"target":34962
		},
		{
			"buffer":0,
			"byteLength":1152,
			"byteOffset":41280,
			"target":34963
		},
		{
			"buffer":0,
			"byteLength":4608,
			"byteOffset":42432,
			"target":34962
		},
		{
			"buffer":0,
			"byteLength":4608,
			"byteOffset":47040,
			"target":34962
		},
		{
			"buffer":0,
			"byteLength":3072,
			"byteOffset":51648,
			"target":34962
		},
		{
			"buffer":0,
			"byteLength":6144,
			"byteOffset":54720,
			"target":34962
		},
		{
			"buffer":0,
			"byteLength":1152,
			"byteOffset":60864,
			"target":34963
		},
		{
			"buffer":0,
			"byteLength":2304,
			"byteOffset":62016,
			"target":34962
		},
		{
			"buffer":0,
			"byteLength":2304,
			"byteOffset":64320,
			"target":34962
		},
		{
			"buffer":0,
			"byteLength":1536,
			"byteOffset":66624,
			"target":34962
		},
		{
			"buffer":0,
			"byteLength":3072,
			"byteOffset":68160,
			"target":34962
		},
		{
			"buffer":0,
			"byteLength":576,
			"byteOffset":71232,
			"target":34963
		},
		{
			"buffer":0,
			"byteLength":2304,
			"byteOffset":71808,
			"target":34962
		},
		{
			"buffer":0,
			"byteLength":2304,
			"byteOffset":74112,
			"target":34962
		},
		{
			"buffer":0,
			"byteLength":1536,
			"byteOffset":76416,
			"target":34962
		},
		{
			"buffer":0,
			"byteLength":3072,
			"byteOffset":77952,
			"target":34962
		},
		{
			"buffer":0,
			"byteLength":576,
			"byteOffset":81024,
			"target":34963
		},
		{
			"buffer":0,
			"byteLength":4608,
			"byteOffset":81600,
			"target":34962
		},
		{
			"buffer":0,
			"byteLength":4608,
			"byteOffset":86208,
			"target":34962
		},
		{
			"buffer":0,
			"byteLength":3072,
			"byteOffset":90816,
			"target":34962
		},
		{
			"buffer":0,
			"byteLength":6144,
			"byteOffset":93888,
			"target":34962
		},
		{
			"buffer":0,
			"byteLength":1152,
			"byteOffset":100032,
			"target":34963
		}
	],
	"buffers":[
		{
			"byteLength":101184,
			"uri":"smolfeesh-c24facf2df2b4ab8059c80ff84dc5e89.bin"
		}
	]
}
