{
	"asset":{
		"generator":"Khronos glTF Blender I/O v4.0.44",
		"version":"2.0"
	},
	"scene":0,
	"scenes":[
		{
			"name":"Scene",
			"nodes":[
				0
			]
		}
	],
	"nodes":[
		{
			"mesh":0,
			"name":"ThreeQuartSlant",
			"scale":[
				0.25,
				0.25,
				0.25
			]
		}
	],
	"materials":[
		{
			"doubleSided":true,
			"name":"Material",
			"pbrMetallicRoughness":{
				"baseColorFactor":[
					0.800000011920929,
					0.800000011920929,
					0.800000011920929,
					1
				],
				"metallicFactor":0,
				"roughnessFactor":0.5
			}
		},
		{
			"doubleSided":true,
			"name":"Material.001",
			"pbrMetallicRoughness":{
				"baseColorFactor":[
					0.800000011920929,
					0.800000011920929,
					0.800000011920929,
					1
				],
				"metallicFactor":0,
				"roughnessFactor":0.5
			}
		},
		{
			"doubleSided":true,
			"name":"Material.002",
			"pbrMetallicRoughness":{
				"baseColorFactor":[
					0.800000011920929,
					0.800000011920929,
					0.800000011920929,
					1
				],
				"metallicFactor":0,
				"roughnessFactor":0.5
			}
		},
		{
			"doubleSided":true,
			"name":"Material.003",
			"pbrMetallicRoughness":{
				"baseColorFactor":[
					0.800000011920929,
					0.800000011920929,
					0.800000011920929,
					1
				],
				"metallicFactor":0,
				"roughnessFactor":0.5
			}
		}
	],
	"meshes":[
		{
			"name":"ThreeQuartSlant",
			"primitives":[
				{
					"attributes":{
						"POSITION":0,
						"NORMAL":1,
						"TEXCOORD_0":2,
						"TANGENT":3
					},
					"indices":4,
					"material":0
				},
				{
					"attributes":{
						"POSITION":5,
						"NORMAL":6,
						"TEXCOORD_0":7,
						"TANGENT":8
					},
					"indices":9,
					"material":1
				},
				{
					"attributes":{
						"POSITION":10,
						"NORMAL":11,
						"TEXCOORD_0":12,
						"TANGENT":13
					},
					"indices":14,
					"material":2
				},
				{
					"attributes":{
						"POSITION":15,
						"NORMAL":16,
						"TEXCOORD_0":17,
						"TANGENT":18
					},
					"indices":19,
					"material":3
				}
			]
		}
	],
	"accessors":[
		{
			"bufferView":0,
			"componentType":5126,
			"count":153,
			"max":[
				1.0000001192092896,
				0.44687503576278687,
				-9.546056389808655e-09
			],
			"min":[
				-2.3748725652694702e-08,
				0,
				-1.0000001192092896
			],
			"type":"VEC3"
		},
		{
			"bufferView":1,
			"componentType":5126,
			"count":153,
			"type":"VEC3"
		},
		{
			"bufferView":2,
			"componentType":5126,
			"count":153,
			"type":"VEC2"
		},
		{
			"bufferView":3,
			"componentType":5126,
			"count":153,
			"type":"VEC4"
		},
		{
			"bufferView":4,
			"componentType":5123,
			"count":252,
			"type":"SCALAR"
		},
		{
			"bufferView":5,
			"componentType":5126,
			"count":181,
			"max":[
				0.017361171543598175,
				0.5777778625488281,
				0.038483984768390656
			],
			"min":[
				-1,
				0,
				-1
			],
			"type":"VEC3"
		},
		{
			"bufferView":6,
			"componentType":5126,
			"count":181,
			"type":"VEC3"
		},
		{
			"bufferView":7,
			"componentType":5126,
			"count":181,
			"type":"VEC2"
		},
		{
			"bufferView":8,
			"componentType":5126,
			"count":181,
			"type":"VEC4"
		},
		{
			"bufferView":9,
			"componentType":5123,
			"count":294,
			"type":"SCALAR"
		},
		{
			"bufferView":10,
			"componentType":5126,
			"count":295,
			"max":[
				0.019965464249253273,
				0.9843751192092896,
				1.0000003576278687
			],
			"min":[
				-1,
				0,
				-0.01996520347893238
			],
			"type":"VEC3"
		},
		{
			"bufferView":11,
			"componentType":5126,
			"count":295,
			"type":"VEC3"
		},
		{
			"bufferView":12,
			"componentType":5126,
			"count":295,
			"type":"VEC2"
		},
		{
			"bufferView":13,
			"componentType":5126,
			"count":295,
			"type":"VEC4"
		},
		{
			"bufferView":14,
			"componentType":5123,
			"count":480,
			"type":"SCALAR"
		},
		{
			"bufferView":15,
			"componentType":5126,
			"count":181,
			"max":[
				1.0000003576278687,
				0.5777778625488281,
				1
			],
			"min":[
				-0.038483403623104095,
				0,
				-0.017361123114824295
			],
			"type":"VEC3"
		},
		{
			"bufferView":16,
			"componentType":5126,
			"count":181,
			"type":"VEC3"
		},
		{
			"bufferView":17,
			"componentType":5126,
			"count":181,
			"type":"VEC2"
		},
		{
			"bufferView":18,
			"componentType":5126,
			"count":181,
			"type":"VEC4"
		},
		{
			"bufferView":19,
			"componentType":5123,
			"count":294,
			"type":"SCALAR"
		}
	],
	"bufferViews":[
		{
			"buffer":0,
			"byteLength":1836,
			"byteOffset":0,
			"target":34962
		},
		{
			"buffer":0,
			"byteLength":1836,
			"byteOffset":1836,
			"target":34962
		},
		{
			"buffer":0,
			"byteLength":1224,
			"byteOffset":3672,
			"target":34962
		},
		{
			"buffer":0,
			"byteLength":2448,
			"byteOffset":4896,
			"target":34962
		},
		{
			"buffer":0,
			"byteLength":504,
			"byteOffset":7344,
			"target":34963
		},
		{
			"buffer":0,
			"byteLength":2172,
			"byteOffset":7848,
			"target":34962
		},
		{
			"buffer":0,
			"byteLength":2172,
			"byteOffset":10020,
			"target":34962
		},
		{
			"buffer":0,
			"byteLength":1448,
			"byteOffset":12192,
			"target":34962
		},
		{
			"buffer":0,
			"byteLength":2896,
			"byteOffset":13640,
			"target":34962
		},
		{
			"buffer":0,
			"byteLength":588,
			"byteOffset":16536,
			"target":34963
		},
		{
			"buffer":0,
			"byteLength":3540,
			"byteOffset":17124,
			"target":34962
		},
		{
			"buffer":0,
			"byteLength":3540,
			"byteOffset":20664,
			"target":34962
		},
		{
			"buffer":0,
			"byteLength":2360,
			"byteOffset":24204,
			"target":34962
		},
		{
			"buffer":0,
			"byteLength":4720,
			"byteOffset":26564,
			"target":34962
		},
		{
			"buffer":0,
			"byteLength":960,
			"byteOffset":31284,
			"target":34963
		},
		{
			"buffer":0,
			"byteLength":2172,
			"byteOffset":32244,
			"target":34962
		},
		{
			"buffer":0,
			"byteLength":2172,
			"byteOffset":34416,
			"target":34962
		},
		{
			"buffer":0,
			"byteLength":1448,
			"byteOffset":36588,
			"target":34962
		},
		{
			"buffer":0,
			"byteLength":2896,
			"byteOffset":38036,
			"target":34962
		},
		{
			"buffer":0,
			"byteLength":588,
			"byteOffset":40932,
			"target":34963
		}
	],
	"buffers":[
		{
			"byteLength":41520,
			"uri":"worldblockthreequartslant-138fd50b2858e57bce24aff2be59a761.bin"
		}
	]
}
