{
	"asset":{
		"generator":"Khronos glTF Blender I/O v4.0.44",
		"version":"2.0"
	},
	"scene":0,
	"scenes":[
		{
			"name":"Scene",
			"nodes":[
				0
			]
		}
	],
	"nodes":[
		{
			"mesh":0,
			"name":"HalfSlant",
			"scale":[
				0.25,
				0.25,
				0.25
			]
		}
	],
	"materials":[
		{
			"doubleSided":true,
			"name":"Material",
			"pbrMetallicRoughness":{
				"baseColorFactor":[
					0.800000011920929,
					0.800000011920929,
					0.800000011920929,
					1
				],
				"metallicFactor":0,
				"roughnessFactor":0.5
			}
		},
		{
			"doubleSided":true,
			"name":"Material.001",
			"pbrMetallicRoughness":{
				"baseColorFactor":[
					0.800000011920929,
					0.800000011920929,
					0.800000011920929,
					1
				],
				"metallicFactor":0,
				"roughnessFactor":0.5
			}
		},
		{
			"doubleSided":true,
			"name":"Material.002",
			"pbrMetallicRoughness":{
				"baseColorFactor":[
					0.800000011920929,
					0.800000011920929,
					0.800000011920929,
					1
				],
				"metallicFactor":0,
				"roughnessFactor":0.5
			}
		},
		{
			"doubleSided":true,
			"name":"Material.003",
			"pbrMetallicRoughness":{
				"baseColorFactor":[
					0.800000011920929,
					0.800000011920929,
					0.800000011920929,
					1
				],
				"metallicFactor":0,
				"roughnessFactor":0.5
			}
		}
	],
	"meshes":[
		{
			"name":"HalfSlant",
			"primitives":[
				{
					"attributes":{
						"POSITION":0,
						"NORMAL":1,
						"TEXCOORD_0":2,
						"TANGENT":3
					},
					"indices":4,
					"material":0
				},
				{
					"attributes":{
						"POSITION":5,
						"NORMAL":6,
						"TEXCOORD_0":7,
						"TANGENT":8
					},
					"indices":9,
					"material":1
				},
				{
					"attributes":{
						"POSITION":10,
						"NORMAL":11,
						"TEXCOORD_0":12,
						"TANGENT":13
					},
					"indices":14,
					"material":2
				},
				{
					"attributes":{
						"POSITION":15,
						"NORMAL":16,
						"TEXCOORD_0":17,
						"TANGENT":18
					},
					"indices":19,
					"material":3
				}
			]
		}
	],
	"accessors":[
		{
			"bufferView":0,
			"componentType":5126,
			"count":181,
			"max":[
				1.000000238418579,
				0.5777778625488281,
				0.03848354145884514
			],
			"min":[
				-2.7939677238464355e-08,
				0,
				-1.0000001192092896
			],
			"type":"VEC3"
		},
		{
			"bufferView":1,
			"componentType":5126,
			"count":181,
			"type":"VEC3"
		},
		{
			"bufferView":2,
			"componentType":5126,
			"count":181,
			"type":"VEC2"
		},
		{
			"bufferView":3,
			"componentType":5126,
			"count":181,
			"type":"VEC4"
		},
		{
			"bufferView":4,
			"componentType":5123,
			"count":294,
			"type":"SCALAR"
		},
		{
			"bufferView":5,
			"componentType":5126,
			"count":181,
			"max":[
				6.076879799365997e-08,
				0.5777778625488281,
				0.038483984768390656
			],
			"min":[
				-1,
				0,
				-1
			],
			"type":"VEC3"
		},
		{
			"bufferView":6,
			"componentType":5126,
			"count":181,
			"type":"VEC3"
		},
		{
			"bufferView":7,
			"componentType":5126,
			"count":181,
			"type":"VEC2"
		},
		{
			"bufferView":8,
			"componentType":5126,
			"count":181,
			"type":"VEC4"
		},
		{
			"bufferView":9,
			"componentType":5123,
			"count":294,
			"type":"SCALAR"
		},
		{
			"bufferView":10,
			"componentType":5126,
			"count":277,
			"max":[
				4.0605664253234863e-07,
				0.9903647303581238,
				1.0000003576278687
			],
			"min":[
				-1,
				0,
				-0.020833345130085945
			],
			"type":"VEC3"
		},
		{
			"bufferView":11,
			"componentType":5126,
			"count":277,
			"type":"VEC3"
		},
		{
			"bufferView":12,
			"componentType":5126,
			"count":277,
			"type":"VEC2"
		},
		{
			"bufferView":13,
			"componentType":5126,
			"count":277,
			"type":"VEC4"
		},
		{
			"bufferView":14,
			"componentType":5123,
			"count":480,
			"type":"SCALAR"
		},
		{
			"bufferView":15,
			"componentType":5126,
			"count":277,
			"max":[
				1.0000004768371582,
				0.990364670753479,
				1
			],
			"min":[
				5.844049155712128e-08,
				0,
				-0.020833345130085945
			],
			"type":"VEC3"
		},
		{
			"bufferView":16,
			"componentType":5126,
			"count":277,
			"type":"VEC3"
		},
		{
			"bufferView":17,
			"componentType":5126,
			"count":277,
			"type":"VEC2"
		},
		{
			"bufferView":18,
			"componentType":5126,
			"count":277,
			"type":"VEC4"
		},
		{
			"bufferView":19,
			"componentType":5123,
			"count":480,
			"type":"SCALAR"
		}
	],
	"bufferViews":[
		{
			"buffer":0,
			"byteLength":2172,
			"byteOffset":0,
			"target":34962
		},
		{
			"buffer":0,
			"byteLength":2172,
			"byteOffset":2172,
			"target":34962
		},
		{
			"buffer":0,
			"byteLength":1448,
			"byteOffset":4344,
			"target":34962
		},
		{
			"buffer":0,
			"byteLength":2896,
			"byteOffset":5792,
			"target":34962
		},
		{
			"buffer":0,
			"byteLength":588,
			"byteOffset":8688,
			"target":34963
		},
		{
			"buffer":0,
			"byteLength":2172,
			"byteOffset":9276,
			"target":34962
		},
		{
			"buffer":0,
			"byteLength":2172,
			"byteOffset":11448,
			"target":34962
		},
		{
			"buffer":0,
			"byteLength":1448,
			"byteOffset":13620,
			"target":34962
		},
		{
			"buffer":0,
			"byteLength":2896,
			"byteOffset":15068,
			"target":34962
		},
		{
			"buffer":0,
			"byteLength":588,
			"byteOffset":17964,
			"target":34963
		},
		{
			"buffer":0,
			"byteLength":3324,
			"byteOffset":18552,
			"target":34962
		},
		{
			"buffer":0,
			"byteLength":3324,
			"byteOffset":21876,
			"target":34962
		},
		{
			"buffer":0,
			"byteLength":2216,
			"byteOffset":25200,
			"target":34962
		},
		{
			"buffer":0,
			"byteLength":4432,
			"byteOffset":27416,
			"target":34962
		},
		{
			"buffer":0,
			"byteLength":960,
			"byteOffset":31848,
			"target":34963
		},
		{
			"buffer":0,
			"byteLength":3324,
			"byteOffset":32808,
			"target":34962
		},
		{
			"buffer":0,
			"byteLength":3324,
			"byteOffset":36132,
			"target":34962
		},
		{
			"buffer":0,
			"byteLength":2216,
			"byteOffset":39456,
			"target":34962
		},
		{
			"buffer":0,
			"byteLength":4432,
			"byteOffset":41672,
			"target":34962
		},
		{
			"buffer":0,
			"byteLength":960,
			"byteOffset":46104,
			"target":34963
		}
	],
	"buffers":[
		{
			"byteLength":47064,
			"uri":"worldblockhalfslant-6b9d0ff658b5579025ba065c7c2040bf.bin"
		}
	]
}
