{
	"asset":{
		"generator":"Khronos glTF Blender I/O v4.0.44",
		"version":"2.0"
	},
	"scene":0,
	"scenes":[
		{
			"name":"Scene",
			"nodes":[
				0
			]
		}
	],
	"nodes":[
		{
			"mesh":0,
			"name":"Cube",
			"scale":[
				0.25,
				0.25,
				0.25
			]
		}
	],
	"materials":[
		{
			"doubleSided":true,
			"name":"Material",
			"pbrMetallicRoughness":{
				"baseColorFactor":[
					0.800000011920929,
					0.800000011920929,
					0.800000011920929,
					1
				],
				"metallicFactor":0,
				"roughnessFactor":0.5
			}
		},
		{
			"doubleSided":true,
			"name":"Material.001",
			"pbrMetallicRoughness":{
				"baseColorFactor":[
					0.800000011920929,
					0.800000011920929,
					0.800000011920929,
					1
				],
				"metallicFactor":0,
				"roughnessFactor":0.5
			}
		},
		{
			"doubleSided":true,
			"name":"Material.002",
			"pbrMetallicRoughness":{
				"baseColorFactor":[
					0.800000011920929,
					0.800000011920929,
					0.800000011920929,
					1
				],
				"metallicFactor":0,
				"roughnessFactor":0.5
			}
		},
		{
			"doubleSided":true,
			"name":"Material.003",
			"pbrMetallicRoughness":{
				"baseColorFactor":[
					0.800000011920929,
					0.800000011920929,
					0.800000011920929,
					1
				],
				"metallicFactor":0,
				"roughnessFactor":0.5
			}
		}
	],
	"meshes":[
		{
			"name":"Cube",
			"primitives":[
				{
					"attributes":{
						"POSITION":0,
						"NORMAL":1,
						"TEXCOORD_0":2,
						"TANGENT":3
					},
					"indices":4,
					"material":0
				},
				{
					"attributes":{
						"POSITION":5,
						"NORMAL":6,
						"TEXCOORD_0":7,
						"TANGENT":8
					},
					"indices":9,
					"material":1
				},
				{
					"attributes":{
						"POSITION":10,
						"NORMAL":11,
						"TEXCOORD_0":12,
						"TANGENT":13
					},
					"indices":14,
					"material":2
				},
				{
					"attributes":{
						"POSITION":15,
						"NORMAL":16,
						"TEXCOORD_0":17,
						"TANGENT":18
					},
					"indices":19,
					"material":3
				}
			]
		}
	],
	"accessors":[
		{
			"bufferView":0,
			"componentType":5126,
			"count":256,
			"max":[
				1.000000238418579,
				1.0000001192092896,
				0
			],
			"min":[
				-2.7008354663848877e-08,
				0,
				-1.0000001192092896
			],
			"type":"VEC3"
		},
		{
			"bufferView":1,
			"componentType":5126,
			"count":256,
			"type":"VEC3"
		},
		{
			"bufferView":2,
			"componentType":5126,
			"count":256,
			"type":"VEC2"
		},
		{
			"bufferView":3,
			"componentType":5126,
			"count":256,
			"type":"VEC4"
		},
		{
			"bufferView":4,
			"componentType":5123,
			"count":480,
			"type":"SCALAR"
		},
		{
			"bufferView":5,
			"componentType":5126,
			"count":256,
			"max":[
				5.844049155712128e-08,
				1.0000001192092896,
				1.9604340195655823e-07
			],
			"min":[
				-1,
				0,
				-1.0000001192092896
			],
			"type":"VEC3"
		},
		{
			"bufferView":6,
			"componentType":5126,
			"count":256,
			"type":"VEC3"
		},
		{
			"bufferView":7,
			"componentType":5126,
			"count":256,
			"type":"VEC2"
		},
		{
			"bufferView":8,
			"componentType":5126,
			"count":256,
			"type":"VEC4"
		},
		{
			"bufferView":9,
			"componentType":5123,
			"count":480,
			"type":"SCALAR"
		},
		{
			"bufferView":10,
			"componentType":5126,
			"count":256,
			"max":[
				4.0730171235736634e-07,
				1.0000001192092896,
				1.0000003576278687
			],
			"min":[
				-1,
				0,
				-9.546056389808655e-09
			],
			"type":"VEC3"
		},
		{
			"bufferView":11,
			"componentType":5126,
			"count":256,
			"type":"VEC3"
		},
		{
			"bufferView":12,
			"componentType":5126,
			"count":256,
			"type":"VEC2"
		},
		{
			"bufferView":13,
			"componentType":5126,
			"count":256,
			"type":"VEC4"
		},
		{
			"bufferView":14,
			"componentType":5123,
			"count":480,
			"type":"SCALAR"
		},
		{
			"bufferView":15,
			"componentType":5126,
			"count":256,
			"max":[
				1.0000004768371582,
				1.0000001192092896,
				1.0000001192092896
			],
			"min":[
				0,
				0,
				-2.5262124836444855e-07
			],
			"type":"VEC3"
		},
		{
			"bufferView":16,
			"componentType":5126,
			"count":256,
			"type":"VEC3"
		},
		{
			"bufferView":17,
			"componentType":5126,
			"count":256,
			"type":"VEC2"
		},
		{
			"bufferView":18,
			"componentType":5126,
			"count":256,
			"type":"VEC4"
		},
		{
			"bufferView":19,
			"componentType":5123,
			"count":480,
			"type":"SCALAR"
		}
	],
	"bufferViews":[
		{
			"buffer":0,
			"byteLength":3072,
			"byteOffset":0,
			"target":34962
		},
		{
			"buffer":0,
			"byteLength":3072,
			"byteOffset":3072,
			"target":34962
		},
		{
			"buffer":0,
			"byteLength":2048,
			"byteOffset":6144,
			"target":34962
		},
		{
			"buffer":0,
			"byteLength":4096,
			"byteOffset":8192,
			"target":34962
		},
		{
			"buffer":0,
			"byteLength":960,
			"byteOffset":12288,
			"target":34963
		},
		{
			"buffer":0,
			"byteLength":3072,
			"byteOffset":13248,
			"target":34962
		},
		{
			"buffer":0,
			"byteLength":3072,
			"byteOffset":16320,
			"target":34962
		},
		{
			"buffer":0,
			"byteLength":2048,
			"byteOffset":19392,
			"target":34962
		},
		{
			"buffer":0,
			"byteLength":4096,
			"byteOffset":21440,
			"target":34962
		},
		{
			"buffer":0,
			"byteLength":960,
			"byteOffset":25536,
			"target":34963
		},
		{
			"buffer":0,
			"byteLength":3072,
			"byteOffset":26496,
			"target":34962
		},
		{
			"buffer":0,
			"byteLength":3072,
			"byteOffset":29568,
			"target":34962
		},
		{
			"buffer":0,
			"byteLength":2048,
			"byteOffset":32640,
			"target":34962
		},
		{
			"buffer":0,
			"byteLength":4096,
			"byteOffset":34688,
			"target":34962
		},
		{
			"buffer":0,
			"byteLength":960,
			"byteOffset":38784,
			"target":34963
		},
		{
			"buffer":0,
			"byteLength":3072,
			"byteOffset":39744,
			"target":34962
		},
		{
			"buffer":0,
			"byteLength":3072,
			"byteOffset":42816,
			"target":34962
		},
		{
			"buffer":0,
			"byteLength":2048,
			"byteOffset":45888,
			"target":34962
		},
		{
			"buffer":0,
			"byteLength":4096,
			"byteOffset":47936,
			"target":34962
		},
		{
			"buffer":0,
			"byteLength":960,
			"byteOffset":52032,
			"target":34963
		}
	],
	"buffers":[
		{
			"byteLength":52992,
			"uri":"worldblock-e3fc8f1e6bafb16b47370ae4733904b6.bin"
		}
	]
}
