{
	"asset":{
		"generator":"Khronos glTF Blender I/O v4.0.44",
		"version":"2.0"
	},
	"scene":0,
	"scenes":[
		{
			"name":"Scene",
			"nodes":[
				0
			]
		}
	],
	"nodes":[
		{
			"mesh":0,
			"name":"QuarterSlant",
			"scale":[
				0.25,
				0.25,
				0.25
			]
		}
	],
	"materials":[
		{
			"doubleSided":true,
			"name":"Material",
			"pbrMetallicRoughness":{
				"baseColorFactor":[
					0.800000011920929,
					0.800000011920929,
					0.800000011920929,
					1
				],
				"metallicFactor":0,
				"roughnessFactor":0.5
			}
		},
		{
			"doubleSided":true,
			"name":"Material.001",
			"pbrMetallicRoughness":{
				"baseColorFactor":[
					0.800000011920929,
					0.800000011920929,
					0.800000011920929,
					1
				],
				"metallicFactor":0,
				"roughnessFactor":0.5
			}
		},
		{
			"doubleSided":true,
			"name":"Material.002",
			"pbrMetallicRoughness":{
				"baseColorFactor":[
					0.800000011920929,
					0.800000011920929,
					0.800000011920929,
					1
				],
				"metallicFactor":0,
				"roughnessFactor":0.5
			}
		},
		{
			"doubleSided":true,
			"name":"Material.003",
			"pbrMetallicRoughness":{
				"baseColorFactor":[
					0.800000011920929,
					0.800000011920929,
					0.800000011920929,
					1
				],
				"metallicFactor":0,
				"roughnessFactor":0.5
			}
		}
	],
	"meshes":[
		{
			"name":"QuarterSlant",
			"primitives":[
				{
					"attributes":{
						"POSITION":0,
						"NORMAL":1,
						"TEXCOORD_0":2,
						"TANGENT":3
					},
					"indices":4,
					"material":0
				},
				{
					"attributes":{
						"POSITION":5,
						"NORMAL":6,
						"TEXCOORD_0":7,
						"TANGENT":8
					},
					"indices":9,
					"material":1
				},
				{
					"attributes":{
						"POSITION":10,
						"NORMAL":11,
						"TEXCOORD_0":12,
						"TANGENT":13
					},
					"indices":14,
					"material":2
				},
				{
					"attributes":{
						"POSITION":15,
						"NORMAL":16,
						"TEXCOORD_0":17,
						"TANGENT":18
					},
					"indices":19,
					"material":3
				}
			]
		}
	],
	"accessors":[
		{
			"bufferView":0,
			"componentType":5126,
			"count":278,
			"max":[
				1.000000238418579,
				0.9917535781860352,
				-9.546056389808655e-09
			],
			"min":[
				-0.013888897374272346,
				0,
				-1
			],
			"type":"VEC3"
		},
		{
			"bufferView":1,
			"componentType":5126,
			"count":278,
			"type":"VEC3"
		},
		{
			"bufferView":2,
			"componentType":5126,
			"count":278,
			"type":"VEC2"
		},
		{
			"bufferView":3,
			"componentType":5126,
			"count":278,
			"type":"VEC4"
		},
		{
			"bufferView":4,
			"componentType":5123,
			"count":480,
			"type":"SCALAR"
		},
		{
			"bufferView":5,
			"componentType":5126,
			"count":209,
			"max":[
				0.03848377615213394,
				0.7072917819023132,
				0.038483984768390656
			],
			"min":[
				-1,
				0,
				-1
			],
			"type":"VEC3"
		},
		{
			"bufferView":6,
			"componentType":5126,
			"count":209,
			"type":"VEC3"
		},
		{
			"bufferView":7,
			"componentType":5126,
			"count":209,
			"type":"VEC2"
		},
		{
			"bufferView":8,
			"componentType":5126,
			"count":209,
			"type":"VEC4"
		},
		{
			"bufferView":9,
			"componentType":5123,
			"count":336,
			"type":"SCALAR"
		},
		{
			"bufferView":10,
			"componentType":5126,
			"count":281,
			"max":[
				4.0605664253234863e-07,
				0.9917535781860352,
				1.0000003576278687
			],
			"min":[
				-1,
				0,
				-0.01388874277472496
			],
			"type":"VEC3"
		},
		{
			"bufferView":11,
			"componentType":5126,
			"count":281,
			"type":"VEC3"
		},
		{
			"bufferView":12,
			"componentType":5126,
			"count":281,
			"type":"VEC2"
		},
		{
			"bufferView":13,
			"componentType":5126,
			"count":281,
			"type":"VEC4"
		},
		{
			"bufferView":14,
			"componentType":5123,
			"count":480,
			"type":"SCALAR"
		},
		{
			"bufferView":15,
			"componentType":5126,
			"count":267,
			"max":[
				1.0000004768371582,
				0.9973090887069702,
				1
			],
			"min":[
				-0.003472163574770093,
				0,
				-0.0034722296986728907
			],
			"type":"VEC3"
		},
		{
			"bufferView":16,
			"componentType":5126,
			"count":267,
			"type":"VEC3"
		},
		{
			"bufferView":17,
			"componentType":5126,
			"count":267,
			"type":"VEC2"
		},
		{
			"bufferView":18,
			"componentType":5126,
			"count":267,
			"type":"VEC4"
		},
		{
			"bufferView":19,
			"componentType":5123,
			"count":480,
			"type":"SCALAR"
		}
	],
	"bufferViews":[
		{
			"buffer":0,
			"byteLength":3336,
			"byteOffset":0,
			"target":34962
		},
		{
			"buffer":0,
			"byteLength":3336,
			"byteOffset":3336,
			"target":34962
		},
		{
			"buffer":0,
			"byteLength":2224,
			"byteOffset":6672,
			"target":34962
		},
		{
			"buffer":0,
			"byteLength":4448,
			"byteOffset":8896,
			"target":34962
		},
		{
			"buffer":0,
			"byteLength":960,
			"byteOffset":13344,
			"target":34963
		},
		{
			"buffer":0,
			"byteLength":2508,
			"byteOffset":14304,
			"target":34962
		},
		{
			"buffer":0,
			"byteLength":2508,
			"byteOffset":16812,
			"target":34962
		},
		{
			"buffer":0,
			"byteLength":1672,
			"byteOffset":19320,
			"target":34962
		},
		{
			"buffer":0,
			"byteLength":3344,
			"byteOffset":20992,
			"target":34962
		},
		{
			"buffer":0,
			"byteLength":672,
			"byteOffset":24336,
			"target":34963
		},
		{
			"buffer":0,
			"byteLength":3372,
			"byteOffset":25008,
			"target":34962
		},
		{
			"buffer":0,
			"byteLength":3372,
			"byteOffset":28380,
			"target":34962
		},
		{
			"buffer":0,
			"byteLength":2248,
			"byteOffset":31752,
			"target":34962
		},
		{
			"buffer":0,
			"byteLength":4496,
			"byteOffset":34000,
			"target":34962
		},
		{
			"buffer":0,
			"byteLength":960,
			"byteOffset":38496,
			"target":34963
		},
		{
			"buffer":0,
			"byteLength":3204,
			"byteOffset":39456,
			"target":34962
		},
		{
			"buffer":0,
			"byteLength":3204,
			"byteOffset":42660,
			"target":34962
		},
		{
			"buffer":0,
			"byteLength":2136,
			"byteOffset":45864,
			"target":34962
		},
		{
			"buffer":0,
			"byteLength":4272,
			"byteOffset":48000,
			"target":34962
		},
		{
			"buffer":0,
			"byteLength":960,
			"byteOffset":52272,
			"target":34963
		}
	],
	"buffers":[
		{
			"byteLength":53232,
			"uri":"worldblockquarterslant-0d84ca300762320e1dedf1b0cf817391.bin"
		}
	]
}
