{
	"asset":{
		"generator":"Khronos glTF Blender I/O v4.0.44",
		"version":"2.0"
	},
	"scene":0,
	"scenes":[
		{
			"name":"Scene",
			"nodes":[
				0
			]
		}
	],
	"nodes":[
		{
			"mesh":0,
			"name":"FullBlock",
			"scale":[
				0.25,
				0.25,
				0.25
			]
		}
	],
	"materials":[
		{
			"doubleSided":true,
			"name":"Material",
			"pbrMetallicRoughness":{
				"baseColorFactor":[
					0.800000011920929,
					0.800000011920929,
					0.800000011920929,
					1
				],
				"metallicFactor":0,
				"roughnessFactor":0.5
			}
		},
		{
			"doubleSided":true,
			"name":"Material.001",
			"pbrMetallicRoughness":{
				"baseColorFactor":[
					0.800000011920929,
					0.800000011920929,
					0.800000011920929,
					1
				],
				"metallicFactor":0,
				"roughnessFactor":0.5
			}
		},
		{
			"doubleSided":true,
			"name":"Material.002",
			"pbrMetallicRoughness":{
				"baseColorFactor":[
					0.800000011920929,
					0.800000011920929,
					0.800000011920929,
					1
				],
				"metallicFactor":0,
				"roughnessFactor":0.5
			}
		},
		{
			"doubleSided":true,
			"name":"Material.003",
			"pbrMetallicRoughness":{
				"baseColorFactor":[
					0.800000011920929,
					0.800000011920929,
					0.800000011920929,
					1
				],
				"metallicFactor":0,
				"roughnessFactor":0.5
			}
		}
	],
	"meshes":[
		{
			"name":"FullBlock",
			"primitives":[
				{
					"attributes":{
						"POSITION":0,
						"NORMAL":1,
						"TEXCOORD_0":2,
						"TANGENT":3
					},
					"indices":4,
					"material":0
				},
				{
					"attributes":{
						"POSITION":5,
						"NORMAL":6,
						"TEXCOORD_0":7,
						"TANGENT":8
					},
					"indices":9,
					"material":1
				},
				{
					"attributes":{
						"POSITION":10,
						"NORMAL":11,
						"TEXCOORD_0":12,
						"TANGENT":13
					},
					"indices":14,
					"material":2
				},
				{
					"attributes":{
						"POSITION":15,
						"NORMAL":16,
						"TEXCOORD_0":17,
						"TANGENT":18
					},
					"indices":19,
					"material":3
				}
			]
		}
	],
	"accessors":[
		{
			"bufferView":0,
			"componentType":5126,
			"count":252,
			"max":[
				1.000000238418579,
				1,
				-7.2177499532699585e-09
			],
			"min":[
				-3.026798367500305e-08,
				0,
				-1
			],
			"type":"VEC3"
		},
		{
			"bufferView":1,
			"componentType":5126,
			"count":252,
			"type":"VEC3"
		},
		{
			"bufferView":2,
			"componentType":5126,
			"count":252,
			"type":"VEC2"
		},
		{
			"bufferView":3,
			"componentType":5126,
			"count":252,
			"type":"VEC4"
		},
		{
			"bufferView":4,
			"componentType":5123,
			"count":480,
			"type":"SCALAR"
		},
		{
			"bufferView":5,
			"componentType":5126,
			"count":252,
			"max":[
				6.05359673500061e-08,
				1,
				1.9604340195655823e-07
			],
			"min":[
				-1,
				0,
				-1
			],
			"type":"VEC3"
		},
		{
			"bufferView":6,
			"componentType":5126,
			"count":252,
			"type":"VEC3"
		},
		{
			"bufferView":7,
			"componentType":5126,
			"count":252,
			"type":"VEC2"
		},
		{
			"bufferView":8,
			"componentType":5126,
			"count":252,
			"type":"VEC4"
		},
		{
			"bufferView":9,
			"componentType":5123,
			"count":480,
			"type":"SCALAR"
		},
		{
			"bufferView":10,
			"componentType":5126,
			"count":252,
			"max":[
				4.0605664253234863e-07,
				1,
				1.0000003576278687
			],
			"min":[
				-1,
				0,
				-9.546056389808655e-09
			],
			"type":"VEC3"
		},
		{
			"bufferView":11,
			"componentType":5126,
			"count":252,
			"type":"VEC3"
		},
		{
			"bufferView":12,
			"componentType":5126,
			"count":252,
			"type":"VEC2"
		},
		{
			"bufferView":13,
			"componentType":5126,
			"count":252,
			"type":"VEC4"
		},
		{
			"bufferView":14,
			"componentType":5123,
			"count":480,
			"type":"SCALAR"
		},
		{
			"bufferView":15,
			"componentType":5126,
			"count":252,
			"max":[
				1.0000004768371582,
				1,
				1
			],
			"min":[
				5.844049155712128e-08,
				0,
				-2.5262124836444855e-07
			],
			"type":"VEC3"
		},
		{
			"bufferView":16,
			"componentType":5126,
			"count":252,
			"type":"VEC3"
		},
		{
			"bufferView":17,
			"componentType":5126,
			"count":252,
			"type":"VEC2"
		},
		{
			"bufferView":18,
			"componentType":5126,
			"count":252,
			"type":"VEC4"
		},
		{
			"bufferView":19,
			"componentType":5123,
			"count":480,
			"type":"SCALAR"
		}
	],
	"bufferViews":[
		{
			"buffer":0,
			"byteLength":3024,
			"byteOffset":0,
			"target":34962
		},
		{
			"buffer":0,
			"byteLength":3024,
			"byteOffset":3024,
			"target":34962
		},
		{
			"buffer":0,
			"byteLength":2016,
			"byteOffset":6048,
			"target":34962
		},
		{
			"buffer":0,
			"byteLength":4032,
			"byteOffset":8064,
			"target":34962
		},
		{
			"buffer":0,
			"byteLength":960,
			"byteOffset":12096,
			"target":34963
		},
		{
			"buffer":0,
			"byteLength":3024,
			"byteOffset":13056,
			"target":34962
		},
		{
			"buffer":0,
			"byteLength":3024,
			"byteOffset":16080,
			"target":34962
		},
		{
			"buffer":0,
			"byteLength":2016,
			"byteOffset":19104,
			"target":34962
		},
		{
			"buffer":0,
			"byteLength":4032,
			"byteOffset":21120,
			"target":34962
		},
		{
			"buffer":0,
			"byteLength":960,
			"byteOffset":25152,
			"target":34963
		},
		{
			"buffer":0,
			"byteLength":3024,
			"byteOffset":26112,
			"target":34962
		},
		{
			"buffer":0,
			"byteLength":3024,
			"byteOffset":29136,
			"target":34962
		},
		{
			"buffer":0,
			"byteLength":2016,
			"byteOffset":32160,
			"target":34962
		},
		{
			"buffer":0,
			"byteLength":4032,
			"byteOffset":34176,
			"target":34962
		},
		{
			"buffer":0,
			"byteLength":960,
			"byteOffset":38208,
			"target":34963
		},
		{
			"buffer":0,
			"byteLength":3024,
			"byteOffset":39168,
			"target":34962
		},
		{
			"buffer":0,
			"byteLength":3024,
			"byteOffset":42192,
			"target":34962
		},
		{
			"buffer":0,
			"byteLength":2016,
			"byteOffset":45216,
			"target":34962
		},
		{
			"buffer":0,
			"byteLength":4032,
			"byteOffset":47232,
			"target":34962
		},
		{
			"buffer":0,
			"byteLength":960,
			"byteOffset":51264,
			"target":34963
		}
	],
	"buffers":[
		{
			"byteLength":52224,
			"uri":"worldblock-e24825d15972624a6d2492ffefc7ee8b.bin"
		}
	]
}
